<svg width="1280" height="1080" viewBox="0 0 1280 1080" fill="none" xmlns="http://www.w3.org/2000/svg">
<g clip-path="url(#clip0_87_4168)">
<path d="M943.455 274.681C943.831 274.681 943.12 274.405 943.455 274.681Z" fill="#3A3F3C"/>
<path d="M289.876 212.011L289.458 211.381L288.664 211.775L289.876 212.011Z" fill="#3A3F3C"/>
<path d="M235.477 258.56C235.391 258.118 235.194 257.701 234.903 257.345C234.613 256.989 234.237 256.703 233.806 256.51C233.325 256.473 232.841 256.546 232.397 256.725C231.953 256.903 231.562 257.182 231.257 257.535C229.043 261.201 227.079 264.906 225.032 268.689C224.196 270.266 225.032 271.212 226.829 271.606C233.555 273.143 235.561 271.606 235.561 265.26V264.078C235.653 262.239 235.625 260.396 235.477 258.56Z" fill="#3A3F3C"/>
<path d="M245.588 257.535C245.284 257.182 244.893 256.903 244.448 256.725C244.004 256.546 243.521 256.473 243.039 256.51C242.605 256.697 242.225 256.982 241.934 257.339C241.642 257.696 241.448 258.115 241.368 258.56C241.243 260.345 241.243 262.135 241.368 263.92C241.201 265.704 241.201 267.497 241.368 269.281C241.507 269.793 241.772 270.268 242.143 270.665C242.513 271.063 242.978 271.371 243.499 271.567C245.662 271.843 247.854 271.843 250.017 271.567C251.897 271.567 252.649 270.187 251.73 268.453C249.724 264.787 247.761 261.082 245.588 257.535Z" fill="#3A3F3C"/>
<path d="M1232.54 204.404C1232.54 204.404 1145.59 313.819 1052.88 307.67C1051.75 307.434 975.208 289.461 943.413 274.641C911.56 266.214 877.834 266.425 846.103 275.251C814.371 284.076 785.918 301.159 764.006 324.54C764.006 324.54 698.41 349.608 600.851 257.062L462.724 170.35C464.729 173.306 544.447 291.235 499.031 396.748C499.031 393.594 498.53 269.123 461.094 238.301C461.094 238.301 437.739 307.158 401.431 325.565L393.869 328.127L399.3 307.71C399.3 307.71 460.092 162.27 391.153 69.4486C376.478 87.6551 360.627 104.991 343.69 121.358C356.173 93.7353 358.727 63.0169 350.96 33.8966C318.036 14.1893 248.262 -17.6183 168.879 12.2186C168.879 12.2186 134.827 18.5643 101.444 54.8652C87.4476 98.6942 84.7318 157.343 84.7318 157.343C77.2643 141.054 71.4449 124.136 67.351 106.814C53.4191 137.931 44.5723 170.862 41.1126 204.483C41.1126 204.483 52.8948 292.929 82.225 327.141C81.0969 326.668 31.2105 306.055 21.5173 238.498C20.8906 242.36 -12.5341 417.085 94.0072 517.632L180.118 657.948L98.1017 460.323C98.1017 460.323 99.8983 403.014 133.198 384.529C133.198 384.529 162.653 366.517 167.792 304.36L191.19 316.184C226.578 331.043 253.861 335.221 290.795 312.243C293.135 310.784 296.436 326.826 296.352 329.388C296.21 335.769 294.792 342.067 292.174 347.952C291.45 349.976 290.057 351.727 288.199 352.947C286.341 354.168 284.117 354.793 281.854 354.732H200.549C199.46 354.725 198.378 354.58 197.331 354.298C203.229 362.388 211.236 368.908 220.582 373.229C229.927 377.551 240.295 379.529 250.686 378.972C250.686 378.972 286.367 379.72 301.366 361.156C301.366 361.156 322.006 354.062 352.004 399.191C352.004 399.191 367.965 434.664 413.882 426.781C413.882 426.781 416.472 430.999 397.17 435.492C397.17 435.492 367.672 457.643 310.056 395.053V394.816L297.104 383.465C298.232 385.79 331.615 455.318 375.861 468.364C375.861 468.364 424.578 473.645 451.067 453.347C449.939 455.199 420.483 502.379 343.23 478.966C343.23 478.966 278.512 426.506 247.552 435.61C247.552 435.61 133.741 451.376 233.806 626.85L157.055 811.074C157.055 811.074 54.8585 875.635 46.377 899.56C46.7948 899.56 110.678 875.911 121.29 870.432L84.8154 899.56C85.5257 899.56 117.363 906.221 177.569 870.393C175.94 872.088 144.562 904.96 143.894 905.866H190.855C190.855 905.866 219.016 901.373 237.734 808.551C237.734 808.551 318.413 662.717 382.17 626.259C382.17 626.259 443.881 583.928 435.692 533.595C436.987 537.537 453.992 591.81 445.009 618.218C448.518 616.996 578.248 571.67 619.402 464.777L670.291 371.325C669.121 375.858 631.268 523.82 665.445 604.896C665.445 604.896 706.098 709.7 706.098 741.428C706.098 741.428 720.178 804.492 673.049 838.073C673.049 838.073 619.444 889.312 618.734 894.83C618.734 894.83 661.601 884.188 673.801 870.551L652.91 897.392C653.997 897.392 703.424 891.677 716.292 882.06L703.298 891.756C703.674 891.756 753.77 907.522 779.716 875.399L786.777 670.443L850.158 622.396L815.522 620.347L861.23 567.57H807.625L859.058 512.902L810.884 509.828L811.97 501.157C811.97 501.157 863.403 404.512 792.459 363.639C792.459 363.639 844.56 301.601 925.238 311.375C925.238 311.375 955.321 312.952 996.517 334.748C1000.56 336.891 1004.91 338.471 1009.43 339.439C1060.79 350.116 1114.24 347.667 1164.27 332.344C1164.27 332.344 1257.27 295.61 1279.21 214.889C1280.53 210.001 1280.02 204.832 1277.77 200.257C1275.52 195.682 1271.66 191.982 1266.84 189.784C1262.03 187.586 1256.56 187.024 1251.36 188.195C1246.16 189.365 1241.55 192.195 1238.3 196.206C1236.08 198.742 1234.15 201.49 1232.54 204.404ZM169.255 293.599C169.255 293.087 169.505 292.614 169.672 292.102L170.09 292.535C169.75 292.843 169.468 293.203 169.255 293.599ZM316.783 177.366C316.012 177.891 315.186 178.34 314.318 178.706C314.903 175.395 315.363 172.636 315.655 171.138C308.886 175.08 301.784 179.573 294.305 183.475C293.215 183.917 292.229 184.557 291.402 185.359C290.575 186.161 289.923 187.109 289.485 188.149C289.046 189.188 288.829 190.299 288.846 191.418C288.863 192.537 289.114 193.641 289.584 194.669C290.895 199.839 291.651 205.121 291.84 210.435C291.84 212.169 291.84 213.903 291.84 215.637C291.758 215.472 291.66 215.313 291.547 215.164C291.485 215.727 291.359 216.282 291.171 216.82C288.674 224.856 284.06 232.165 277.76 238.064C262.719 251.82 262.551 275.981 274.292 291.195C276.423 293.954 279.138 296.28 281.186 299.078C283.183 301.562 284.958 304.199 286.492 306.961C287.077 307.986 286.032 307.592 285.364 308.498C284.666 309.218 283.864 309.842 282.982 310.351C255.073 329.27 221.773 328.481 192.986 311.021C192.104 310.589 191.288 310.045 190.563 309.405C189.894 308.774 189.268 308.538 189.853 307.631C192.179 303.54 194.982 299.706 198.209 296.201C204.573 289.861 208.76 281.856 210.221 273.234C211.682 264.612 210.35 255.774 206.398 247.879C204.548 244.45 202.184 241.29 199.379 238.498C193.083 232.342 188.354 224.915 185.549 216.78C185.348 216.204 185.208 215.61 185.131 215.007C185.131 215.007 185.131 215.007 185.131 214.691C185.064 214.287 185.064 213.874 185.131 213.47C185.627 207.298 186.618 201.171 188.098 195.142C188.662 193.982 188.962 192.725 188.98 191.449C188.998 190.174 188.733 188.909 188.202 187.736C187.67 186.563 186.885 185.508 185.896 184.638C184.906 183.769 183.735 183.104 182.457 182.687C175.271 179.061 168.544 174.804 162.11 170.862C162.403 172.242 162.987 175.04 163.614 178.154C155.216 173.424 152.083 165.541 157.096 157.856C161.975 151.452 167.487 145.5 173.558 140.08C175.549 138.482 177.688 137.057 179.951 135.823L171.302 135.192C183.293 127.309 200.883 127.94 215.673 139.331C215.005 137.163 214.629 135.902 214.002 133.734C222.024 139.764 227.372 148.554 238.318 148.869C249.265 149.184 255.282 140.75 263.22 134.01C263.22 135.98 263.011 137.123 262.844 139.212C276.715 127.861 291.464 127.782 306.923 134.995L299.528 135.705C305.138 140.107 310.481 144.805 315.53 149.776C325.306 160.26 325.39 169.483 316.783 177.366Z" fill="#3A3F3C"/>
<path d="M246.758 169.01C247.051 166.487 247.218 165.068 247.552 162.191L239.196 169.522L230.547 161.955C231.007 164.635 231.257 165.896 231.717 168.892C224.928 163.877 217.047 160.34 208.64 158.534C200.232 156.728 191.505 156.699 183.084 158.447L193.571 160.142L187.346 162.979C194.156 161.639 197.206 163.531 198.167 170.508C199.128 177.484 205.604 182.017 212.79 184.579C215.046 185.367 217.344 185.998 221.522 187.338L220.144 187.732H221.564C235.268 182.332 256.911 187.732 256.911 187.732H256.577C261.465 186.037 264.599 185.052 267.649 183.79C270.88 182.85 273.768 181.073 275.983 178.663C278.199 176.252 279.654 173.304 280.183 170.153C280.851 163.374 284.068 162.27 290.168 163.177L284.779 160.496L294.973 158.723C286.632 156.935 277.973 156.931 269.63 158.711C261.287 160.492 253.472 164.01 246.758 169.01ZM210.952 175.316C204.142 172.36 203.348 167.63 207.818 160.22C209.123 161.874 210.23 163.659 211.119 165.541C212.54 170.114 215.297 171.808 219.475 169.207C223.653 166.606 225.241 169.68 227.831 172.045C225.817 174.3 223.055 175.849 219.993 176.442C216.931 177.036 213.746 176.639 210.952 175.316ZM270.155 174.173C264.264 178.115 258.248 177.563 251.02 172.124C253.443 169.128 255.198 166.684 259.376 169.365C263.554 172.045 266.144 170.035 267.481 165.738C268.378 163.817 269.469 161.982 270.74 160.26C274.668 166.054 276.088 170.35 270.155 174.173Z" fill="#3A3F3C"/>
<path d="M275.169 815.291L294.263 842.33C294.263 842.33 248.889 863.732 246.507 891.874V900.033C246.507 900.033 281.77 853.524 319.54 857.465L281.938 800.669L275.169 815.291Z" fill="#3A3F3C"/>
<path d="M343.69 718.371L422.363 836.654V828.219L357.854 699.531L343.69 718.371Z" fill="#3A3F3C"/>
<path d="M557.232 615.893L536.759 631.659L574.028 702.605V808C574.028 808 483.781 868.383 475.926 897.589L487.458 900.072C487.458 900.072 544.113 838.704 578.749 834.25C578.749 834.25 588.192 837.482 590.824 800.747L593.957 707.059C593.957 707.059 573.485 621.332 557.232 615.893Z" fill="#3A3F3C"/>
<path d="M8.3561 966.289C13.775 956.257 22.2025 947.95 32.589 942.404C43.8834 936.529 56.6298 933.591 69.5234 933.89C80.7901 933.708 91.956 935.917 102.196 940.354C111.544 944.451 119.616 950.749 125.635 958.642C131.802 966.864 135.916 976.297 137.668 986.233H91.2077C89.282 982.094 86.153 978.554 82.183 976.024C78.2032 973.561 73.5304 972.284 68.7713 972.359C65.3812 972.226 62.0079 972.875 58.9432 974.248C55.8784 975.622 53.2144 977.679 51.1815 980.242C46.9519 986.58 44.7076 993.917 44.7076 1001.41C44.7076 1008.9 46.9519 1016.23 51.1815 1022.57C53.2144 1025.14 55.8784 1027.19 58.9432 1028.57C62.0079 1029.94 65.3812 1030.59 68.7713 1030.46C73.5297 1030.53 78.2011 1029.25 82.183 1026.79C86.1639 1024.27 89.2959 1020.73 91.2077 1016.58H137.877C136.143 1026.52 132.028 1035.96 125.844 1044.17C119.812 1052.05 111.743 1058.35 102.405 1062.46C92.1622 1066.89 80.9981 1069.1 69.7323 1068.92C56.753 1069.21 43.9287 1066.22 32.589 1060.25C22.2474 1054.76 13.8267 1046.54 8.3561 1036.6C2.80129 1025.65 -0.0820313 1013.67 -0.0820312 1001.53C-0.0820312 989.385 2.80129 977.398 8.3561 966.446V966.289Z" fill="#3A3F3C"/>
<path d="M283.65 935.191V1067.86H239.572V1016.15H197.791V1067.86H153.586V935.191H197.665V982.961H239.446V935.191H283.65Z" fill="#3A3F3C"/>
<path d="M347.575 935.191V1067.86H303.497V935.191H347.575Z" fill="#3A3F3C"/>
<path d="M411.542 1036.37H454.033V1067.9H367.421V935.191H411.5V1036.37H411.542Z" fill="#3A3F3C"/>
<path d="M558.151 1047.8H511.273L504.337 1067.86H458.044L509.476 935.191H560.324L611.589 1067.86H565.087L558.151 1047.8ZM547.33 1016.5L534.795 979.572L522.261 1016.5H547.33Z" fill="#3A3F3C"/>
<path d="M718.632 943.625C729.352 948.95 738.215 957.079 744.16 967.038C750.033 977.548 753.102 989.25 753.102 1001.13C753.102 1013.01 750.033 1024.71 744.16 1035.22C738.237 1045.32 729.38 1053.61 718.632 1059.11C706.757 1065.1 693.446 1068.1 679.984 1067.82H621.491V935.151H679.984C693.414 934.894 706.699 937.807 718.632 943.625ZM699.663 1023.09C705.293 1017.02 708.396 1009.23 708.396 1001.17C708.396 993.109 705.293 985.321 699.663 979.256C693.132 973.904 684.655 971.149 676.015 971.57H665.487V1030.69H676.015C684.686 1031.17 693.213 1028.44 699.789 1023.09H699.663Z" fill="#3A3F3C"/>
<path d="M859.266 1047.8H812.388L805.452 1067.86H759.159L810.55 935.191H861.397L912.662 1067.86H866.202L859.266 1047.8ZM848.529 1016.5L835.994 979.572L823.46 1016.5H848.529Z" fill="#3A3F3C"/>
<path d="M973.495 998.964C963.844 998.964 954.588 995.347 947.763 988.908C940.938 982.47 937.104 973.738 937.104 964.633C937.088 960.115 938.017 955.638 939.838 951.459C941.66 947.281 944.338 943.482 947.719 940.282C951.099 937.081 955.117 934.542 959.54 932.809C963.963 931.077 968.706 930.185 973.495 930.185C983.147 930.185 992.403 933.802 999.228 940.24C1006.05 946.678 1009.89 955.41 1009.89 964.515C1009.9 969.032 1008.96 973.506 1007.14 977.683C1005.32 981.859 1002.64 985.656 999.26 988.855C995.88 992.054 991.865 994.594 987.444 996.328C983.023 998.063 978.283 998.958 973.495 998.964Z" fill="#4C2D8E"/>
<path d="M1061.78 1001.13C1052.13 1001.13 1042.87 997.514 1036.05 991.076C1029.22 984.638 1025.39 975.906 1025.39 966.801C1025.39 957.696 1029.22 948.964 1036.05 942.526C1042.87 936.088 1052.13 932.471 1061.78 932.471C1071.43 932.471 1080.69 936.088 1087.51 942.526C1094.34 948.964 1098.17 957.696 1098.17 966.801C1098.17 975.906 1094.34 984.638 1087.51 991.076C1080.69 997.514 1071.43 1001.13 1061.78 1001.13Z" fill="#BEBB32"/>
<path d="M1151.23 998.964C1141.58 998.964 1132.32 995.347 1125.5 988.908C1118.67 982.47 1114.84 973.738 1114.84 964.633C1114.84 955.528 1118.67 946.796 1125.5 940.358C1132.32 933.92 1141.58 930.303 1151.23 930.303C1160.88 930.303 1170.14 933.92 1176.96 940.358C1183.79 946.796 1187.62 955.528 1187.62 964.633C1187.61 973.735 1183.77 982.461 1176.95 988.897C1170.13 995.333 1160.88 998.953 1151.23 998.964Z" fill="#A64263"/>
<path d="M1236.09 998.964C1226.44 998.964 1217.18 995.347 1210.36 988.908C1203.53 982.47 1199.7 973.738 1199.7 964.633C1199.7 955.528 1203.53 946.796 1210.36 940.358C1217.18 933.92 1226.44 930.303 1236.09 930.303C1245.74 930.303 1255 933.92 1261.82 940.358C1268.65 946.796 1272.48 955.528 1272.48 964.633C1272.48 973.738 1268.65 982.47 1261.82 988.908C1255 995.347 1245.74 998.964 1236.09 998.964Z" fill="#DD9827"/>
<path d="M970.32 1079.96C960.668 1079.96 951.412 1076.34 944.587 1069.91C937.763 1063.47 933.929 1054.74 933.929 1045.63C933.929 1036.53 937.763 1027.79 944.587 1021.36C951.412 1014.92 960.668 1011.3 970.32 1011.3C975.12 1011.27 979.878 1012.14 984.32 1013.86C988.762 1015.58 992.8 1018.1 996.202 1021.3C999.604 1024.49 1002.3 1028.29 1004.14 1032.47C1005.98 1036.66 1006.93 1041.14 1006.92 1045.67C1006.91 1050.19 1005.96 1054.67 1004.12 1058.84C1002.27 1063.01 999.574 1066.8 996.173 1069.99C992.772 1073.18 988.737 1075.7 984.301 1077.41C979.864 1079.12 975.113 1079.99 970.32 1079.96Z" fill="#66A543"/>
<path d="M1058.9 1079.96C1049.24 1079.96 1039.99 1076.34 1033.16 1069.91C1026.34 1063.47 1022.5 1054.74 1022.5 1045.63C1022.5 1036.53 1026.34 1027.79 1033.16 1021.36C1039.99 1014.92 1049.24 1011.3 1058.9 1011.3C1068.55 1011.3 1077.8 1014.92 1084.63 1021.36C1091.45 1027.79 1095.29 1036.53 1095.29 1045.63C1095.29 1054.74 1091.45 1063.47 1084.63 1069.91C1077.8 1076.34 1068.55 1079.96 1058.9 1079.96Z" fill="#0157A3"/>
<path d="M1148.31 1079.96C1138.66 1079.96 1129.4 1076.34 1122.57 1069.91C1115.75 1063.47 1111.92 1054.74 1111.92 1045.63C1111.92 1036.53 1115.75 1027.79 1122.57 1021.36C1129.4 1014.92 1138.66 1011.3 1148.31 1011.3C1157.96 1011.3 1167.21 1014.92 1174.04 1021.36C1180.86 1027.79 1184.7 1036.53 1184.7 1045.63C1184.7 1054.74 1180.86 1063.47 1174.04 1069.91C1167.21 1076.34 1157.96 1079.96 1148.31 1079.96Z" fill="#009C88"/>
<path d="M1236.09 1079.96C1226.44 1079.96 1217.18 1076.34 1210.36 1069.91C1203.53 1063.47 1199.7 1054.74 1199.7 1045.63C1199.7 1036.53 1203.53 1027.79 1210.36 1021.36C1217.18 1014.92 1226.44 1011.3 1236.09 1011.3C1245.74 1011.3 1255 1014.92 1261.82 1021.36C1268.65 1027.79 1272.48 1036.53 1272.48 1045.63C1272.48 1054.74 1268.65 1063.47 1261.82 1069.91C1255 1076.34 1245.74 1079.96 1236.09 1079.96Z" fill="#773F33"/>
</g>
<defs>
<clipPath id="clip0_87_4168">
<rect width="1280" height="1080" fill="white"/>
</clipPath>
</defs>
</svg>
