<svg width="1280" height="1088" viewBox="0 0 1280 1088" fill="none" xmlns="http://www.w3.org/2000/svg">
<g clip-path="url(#clip0_87_4141)">
<path d="M956.531 254.72C956.937 254.72 956.199 254.452 956.531 254.72Z" fill="white"/>
<path d="M327.836 196.621C327.836 196.42 327.578 196.218 327.431 196.05L326.656 196.453C327.055 196.471 327.45 196.527 327.836 196.621Z" fill="white"/>
<path d="M275.496 239.736C275.399 239.33 275.204 238.95 274.926 238.622C274.647 238.293 274.292 238.026 273.885 237.838C273.42 237.798 272.951 237.866 272.523 238.035C272.094 238.204 271.719 238.468 271.432 238.803C269.308 242.133 267.367 245.662 265.462 249.159C264.657 250.624 265.462 251.489 267.184 251.856C273.629 253.287 275.606 251.856 275.606 245.962V244.963C275.68 243.22 275.644 241.475 275.496 239.736Z" fill="white"/>
<path d="M285.238 238.803C284.949 238.472 284.572 238.212 284.143 238.049C283.714 237.886 283.247 237.825 282.784 237.871C282.366 238.044 282 238.307 281.719 238.638C281.439 238.969 281.251 239.357 281.173 239.769C281.045 241.421 281.045 243.078 281.173 244.73C281.007 246.38 281.007 248.041 281.173 249.691C281.294 250.169 281.546 250.611 281.904 250.978C282.262 251.344 282.716 251.623 283.224 251.789C285.302 252.039 287.407 252.039 289.486 251.789C291.28 251.589 292.013 250.49 291.097 248.892C289.303 245.529 287.325 242.133 285.238 238.803Z" fill="white"/>
<path d="M1234.41 189.556C1234.41 189.556 1150.99 291.011 1062 285.317C1060.94 285.084 987.256 268.436 956.714 254.718C948.585 252.453 857.839 228.08 784.121 300.967C784.121 300.967 721.024 324.274 627.202 238.402L494.123 157.858C496.064 160.621 572.747 269.934 529.059 367.626C529.059 364.696 528.583 249.29 492.438 220.722C492.438 220.722 469.99 284.718 435.091 301.766L427.766 304.13L432.967 285.184C432.967 285.184 491.559 150.333 425.13 64.2609C411.035 81.1984 395.796 97.3228 379.5 112.541C391.523 86.9288 394.005 58.4446 386.568 31.4305C354.891 13.0508 287.693 -16.3501 211.412 11.4525C211.412 11.4525 178.673 17.3127 146.52 50.9756C133.044 91.5975 130.297 146.004 130.297 146.004C123.092 130.847 117.476 115.106 113.525 98.9893C100.112 127.84 91.6039 158.378 88.2934 189.556C88.2934 189.556 99.6824 271.566 127.88 303.331C126.782 302.898 78.8087 283.785 69.2873 221.121C68.5915 224.651 36.3288 386.605 138.866 479.836L221.702 609.926L142.785 426.794C142.785 426.794 144.543 373.52 176.549 356.539C176.549 356.539 204.893 339.89 209.801 282.221L232.688 293.009C266.709 306.893 292.966 310.822 328.525 289.679C330.795 288.314 333.944 303.197 333.871 305.595C333.769 311.506 332.439 317.346 329.953 322.809C329.205 324.664 327.824 326.253 326.012 327.343C324.2 328.434 322.052 328.968 319.882 328.869H241.697C240.656 328.872 239.62 328.737 238.621 328.47C244.271 335.988 251.958 342.054 260.938 346.085C269.918 350.115 279.89 351.972 289.89 351.477C289.89 351.477 324.203 352.177 338.632 334.829C338.632 334.829 358.48 328.17 387.374 370.09C387.374 370.09 402.718 402.887 446.919 395.529C446.919 395.529 449.409 399.425 430.659 403.62C430.659 403.62 402.278 424.164 346.835 366.128L346.615 365.928L334.164 355.406C335.226 357.571 367.342 422 409.932 434.12C409.932 434.12 456.77 439.048 482.075 420.202C481.013 421.9 452.778 465.652 378.329 443.942C378.329 443.942 316.074 395.296 286.301 403.62C286.301 403.62 176.842 418.104 273.081 580.958L199.84 752.002C199.84 752.002 101.513 811.936 93.3837 834.045C93.7865 834.045 155.236 812.036 165.453 807.042L130.37 834.045C131.066 834.045 161.681 840.205 219.615 807.008L187.206 839.739H232.322C232.322 839.739 259.421 835.577 277.439 749.505C277.439 749.505 355.038 614.154 416.377 580.492C416.377 580.492 475.739 541.235 467.866 494.586C469.111 498.316 485.48 548.56 476.838 573.066C480.207 571.934 605.01 529.781 644.597 430.79L693.559 344.219C692.423 348.414 656.023 485.596 688.908 560.647C688.908 560.647 728.019 657.84 728.019 687.174C728.019 687.174 741.568 745.476 696.232 776.775C696.232 776.775 644.67 824.156 644.084 829.384C644.304 829.384 685.319 819.395 697.038 806.875C694.987 809.406 677.409 831.148 676.896 831.748C677.958 831.748 725.492 826.42 737.87 817.53L725.382 826.52C725.712 826.52 773.941 841.104 798.88 811.37L805.654 621.413L866.628 576.862L833.34 574.964L877.211 526.085H825.649L875.233 475.374L828.872 472.544L829.897 464.486C829.897 464.486 879.372 374.885 811.147 336.96C811.147 336.96 861.171 279.69 938.77 288.58C938.77 288.58 967.701 290.045 1007.32 310.256C1011.21 312.253 1015.39 313.723 1019.74 314.618C1069.15 324.502 1120.57 322.203 1168.67 307.959C1168.67 307.959 1258.18 273.93 1279.23 199.112C1285.24 177.769 1254.62 164.284 1239.9 181.765C1237.92 184.274 1236.09 186.874 1234.41 189.556ZM211.815 272.265C211.815 271.799 212.071 271.333 212.218 270.9L212.62 271.299C212.272 271.559 211.996 271.89 211.815 272.265ZM353.683 164.351C352.952 164.835 352.166 165.248 351.339 165.583C351.889 162.519 352.365 159.955 352.621 158.557C346.102 162.22 339.254 166.382 332.077 170.011C327.133 172.508 326.217 175.538 327.536 180.4C328.789 185.162 329.525 190.024 329.733 194.917C329.733 196.515 329.733 198.247 329.733 199.745C329.733 199.745 329.733 199.478 329.477 199.312C329.396 199.83 329.274 200.342 329.111 200.844C326.713 208.306 322.264 215.09 316.183 220.555C301.718 233.308 301.535 255.716 312.851 269.834C314.902 272.365 317.538 274.529 319.479 277.126C321.395 279.42 323.109 281.847 324.606 284.385C325.155 285.317 324.167 284.951 323.508 285.817C322.852 286.486 322.086 287.059 321.237 287.515C294.394 305.062 262.351 304.329 234.666 288.147C233.819 287.738 233.032 287.235 232.322 286.649C231.7 286.05 231.077 285.85 231.663 285.017C233.888 281.224 236.579 277.672 239.683 274.429C245.695 268.557 249.648 261.19 251.037 253.268C252.426 245.345 251.189 237.226 247.483 229.945C245.71 226.768 243.44 223.841 240.745 221.254C234.7 215.602 230.153 208.769 227.452 201.276C227.263 200.745 227.129 200.199 227.049 199.645C227.049 199.645 227.049 199.445 227.049 199.379C226.97 199.005 226.97 198.62 227.049 198.247C227.533 192.529 228.488 186.853 229.905 181.265C230.447 180.19 230.735 179.024 230.752 177.842C230.77 176.659 230.515 175.487 230.005 174.399C229.494 173.311 228.74 172.332 227.789 171.525C226.839 170.718 225.714 170.1 224.485 169.711C217.564 166.382 211.119 162.253 204.93 158.723C205.186 159.989 205.772 162.619 206.358 165.383C198.119 160.821 195.079 153.696 199.95 146.57C204.629 140.576 209.927 135.002 215.77 129.922C217.689 128.44 219.748 127.114 221.922 125.96L213.609 125.394C225.145 118.102 242.063 118.734 256.309 129.256L254.697 124.062C262.717 129.855 267.844 137.913 278.318 138.179C288.791 138.446 294.651 130.654 302.084 124.461C302.084 126.259 301.865 127.325 301.718 129.289C315.048 118.767 329.257 118.701 344.088 125.394L336.764 126.059C342.232 130.114 347.441 134.45 352.365 139.045C361.886 148.635 361.996 157.025 353.683 164.351Z" fill="white"/>
<path d="M286.373 156.76C286.666 154.43 286.849 152.965 287.142 150.467L279.012 157.127L270.663 150.101C271.102 152.598 271.322 153.964 271.762 156.561C265.24 151.925 257.675 148.654 249.605 146.979C241.535 145.304 233.158 145.267 225.07 146.871L235.178 148.436L229.172 151.067C235.727 149.801 238.657 151.566 239.572 158.026C240.561 164.985 246.896 168.714 253.634 171.078C255.795 171.81 258.029 172.41 262.057 173.608L260.739 173.975H262.13C275.314 168.98 296.151 173.975 296.151 173.975H296.371H296.041C300.728 172.377 303.768 171.478 306.698 170.345C309.797 169.438 312.554 167.759 314.658 165.499C316.762 163.239 318.127 160.489 318.599 157.56C319.259 151.266 322.261 150.234 328.194 151.1L323.03 148.603L332.845 146.938C316.146 144.341 300.692 146.505 286.373 156.76ZM251.913 162.587C245.358 159.857 244.589 155.462 248.91 148.603C250.187 150.147 251.256 151.823 252.096 153.597C253.451 157.826 256.308 159.391 260.336 156.927C264.364 154.463 265.866 157.36 268.209 159.557C266.261 161.652 263.595 163.09 260.639 163.64C257.683 164.19 254.609 163.819 251.913 162.587ZM308.858 161.555C303.219 165.085 297.396 164.685 290.548 159.657C292.892 156.86 294.503 154.596 298.714 157.093C302.926 159.591 305.233 157.726 306.515 153.764C307.364 151.98 308.42 150.283 309.664 148.703C313.179 153.997 314.571 157.959 308.858 161.555Z" fill="white"/>
<path d="M313.692 755.833L332.002 780.905C332.002 780.905 288.387 800.883 286.08 826.855V834.413C286.08 834.413 319.991 791.127 356.318 794.956L320.32 742.514L313.692 755.833Z" fill="white"/>
<path d="M379.572 666.065L455.304 775.744V767.953L393.195 648.651L379.572 666.065Z" fill="white"/>
<path d="M585.014 571.07L565.312 585.754L601.164 651.382V749.174C601.164 749.174 514.336 805.145 506.792 832.249L517.779 834.546C517.779 834.546 572.27 777.642 605.668 773.514C605.668 773.514 614.75 776.51 617.277 742.448L620.316 655.577C620.316 655.577 600.578 576.031 585.014 571.07Z" fill="white"/>
<path d="M8.12962 982.583C13.3215 973.297 21.3935 965.599 31.3471 960.441C42.222 954.993 54.4933 952.27 66.9057 952.549C77.7411 952.378 88.4799 954.427 98.3262 958.543C107.3 962.399 115.05 968.265 120.848 975.591C126.786 983.195 130.743 991.928 132.42 1001.13H87.8893C86.0485 997.288 83.0368 994.007 79.2102 991.673C75.3759 989.417 70.886 988.257 66.3198 988.343C63.0444 988.201 59.7802 988.785 56.8077 990.044C53.8351 991.302 51.2432 993.198 49.2546 995.569C45.1877 1001.45 43.0302 1008.26 43.0302 1015.21C43.0302 1022.16 45.1877 1028.97 49.2546 1034.86C51.2171 1037.23 53.7803 1039.13 56.726 1040.41C59.6717 1041.68 62.9128 1042.29 66.1733 1042.18C70.7404 1042.28 75.2323 1041.12 79.0637 1038.85C82.9801 1036.49 86.0483 1033.13 87.8893 1029.2H132.457C130.785 1038.41 126.814 1047.14 120.848 1054.74C115.04 1062.04 107.275 1067.88 98.2895 1071.68C88.4433 1075.8 77.7045 1077.85 66.8691 1077.68C54.4573 1077.95 42.1873 1075.23 31.3105 1069.79C21.3569 1064.63 13.2849 1056.93 8.093 1047.64C2.74177 1037.49 -0.0361328 1026.37 -0.0361328 1015.11C-0.0361328 1003.85 2.74177 992.737 8.093 982.583H8.12962Z" fill="white"/>
<path d="M272.86 953.748V1076.75H230.453V1028.87H190.171V1076.81H147.728V953.748H190.134V998.066H230.417V953.748H272.86Z" fill="white"/>
<path d="M334.383 953.748V1076.75H291.976V953.748H334.383Z" fill="white"/>
<path d="M395.905 1047.58H436.81V1076.78H353.499V953.781H395.905V1047.58Z" fill="white"/>
<path d="M536.931 1058.17H491.851L485.15 1076.75H440.619L490.094 953.748H539.019L588.31 1076.75H543.596L536.931 1058.17ZM526.604 1029.16L514.373 994.936L502.142 1029.16H526.604Z" fill="white"/>
<path d="M691.397 961.573C701.705 966.509 710.225 974.047 715.933 983.282C721.79 992.962 724.757 1003.87 724.538 1014.91C724.723 1025.96 721.758 1036.85 715.933 1046.55C710.236 1055.9 701.725 1063.58 691.397 1068.69C679.983 1074.26 667.177 1077.04 654.227 1076.78H597.868V953.781H654.227C667.142 953.48 679.93 956.161 691.397 961.573ZM673.086 1035.22C678.514 1029.61 681.508 1022.39 681.508 1014.91C681.508 1007.44 678.514 1000.22 673.086 994.603C666.815 989.627 658.657 987.07 650.345 987.478H640.201V1042.38H650.345C658.684 1042.78 666.866 1040.21 673.16 1035.22H673.086Z" fill="white"/>
<path d="M826.6 1058.17H781.52L774.819 1076.75H730.288L779.763 953.748H828.688L877.979 1076.75H833.265L826.6 1058.17ZM816.273 1029.16L804.042 994.936L791.811 1029.16H816.273Z" fill="white"/>
<path d="M936.425 1012.85C927.14 1012.85 918.236 1009.5 911.67 1003.53C905.105 997.557 901.416 989.46 901.416 981.018C901.416 972.576 905.105 964.479 911.67 958.51C918.236 952.54 927.14 949.187 936.425 949.187C945.71 949.187 954.615 952.54 961.181 958.51C967.746 964.479 971.435 972.576 971.435 981.018C971.439 985.199 970.537 989.341 968.78 993.205C967.022 997.069 964.443 1000.58 961.191 1003.54C957.939 1006.49 954.078 1008.84 949.828 1010.44C945.579 1012.03 941.024 1012.85 936.425 1012.85Z" fill="#4C2D8E"/>
<path d="M1021.39 1015.01C1016.79 1015.01 1012.24 1014.19 1007.99 1012.59C1003.74 1010.99 999.881 1008.65 996.63 1005.69C993.379 1002.73 990.8 999.225 989.041 995.364C987.281 991.502 986.376 987.362 986.376 983.182C986.376 974.74 990.064 966.643 996.63 960.674C1003.2 954.704 1012.1 951.351 1021.39 951.351C1030.67 951.351 1039.58 954.704 1046.14 960.674C1052.71 966.643 1056.39 974.74 1056.39 983.182C1056.39 987.362 1055.49 991.502 1053.73 995.364C1051.97 999.225 1049.39 1002.73 1046.14 1005.69C1042.89 1008.65 1039.03 1010.99 1034.78 1012.59C1030.54 1014.19 1025.98 1015.01 1021.39 1015.01Z" fill="#BEBB32"/>
<path d="M1107.44 1012.85C1098.16 1012.85 1089.25 1009.5 1082.69 1003.53C1076.12 997.557 1072.43 989.46 1072.43 981.018C1072.43 972.576 1076.12 964.479 1082.69 958.51C1089.25 952.54 1098.16 949.187 1107.44 949.187C1116.73 949.187 1125.63 952.54 1132.2 958.51C1138.76 964.479 1142.45 972.576 1142.45 981.018C1142.45 989.46 1138.76 997.557 1132.2 1003.53C1125.63 1009.5 1116.73 1012.85 1107.44 1012.85Z" fill="#A64263"/>
<path d="M1189.07 1012.85C1179.79 1012.85 1170.88 1009.5 1164.32 1003.53C1157.75 997.557 1154.06 989.46 1154.06 981.018C1154.06 972.576 1157.75 964.479 1164.32 958.51C1170.88 952.54 1179.79 949.187 1189.07 949.187C1198.36 949.187 1207.26 952.54 1213.83 958.51C1220.39 964.479 1224.08 972.576 1224.08 981.018C1224.08 985.199 1223.18 989.341 1221.43 993.205C1219.67 997.069 1217.09 1000.58 1213.84 1003.54C1210.58 1006.49 1206.72 1008.84 1202.47 1010.44C1198.22 1012.03 1193.67 1012.85 1189.07 1012.85Z" fill="#C3862B"/>
<path d="M933.422 1088C924.137 1088 915.233 1084.65 908.667 1078.68C902.102 1072.71 898.413 1064.61 898.413 1056.17C898.413 1047.73 902.102 1039.63 908.667 1033.66C915.233 1027.69 924.137 1024.34 933.422 1024.34C942.707 1024.34 951.612 1027.69 958.178 1033.66C964.743 1039.63 968.432 1047.73 968.432 1056.17C968.432 1064.61 964.743 1072.71 958.178 1078.68C951.612 1084.65 942.707 1088 933.422 1088Z" fill="#66A543"/>
<path d="M1018.64 1088C1009.35 1088 1000.45 1084.65 993.883 1078.68C987.318 1072.71 983.629 1064.61 983.629 1056.17C983.629 1047.73 987.318 1039.63 993.883 1033.66C1000.45 1027.69 1009.35 1024.34 1018.64 1024.34C1027.92 1024.34 1036.83 1027.69 1043.39 1033.66C1049.96 1039.63 1053.65 1047.73 1053.65 1056.17C1053.64 1064.61 1049.95 1072.7 1043.38 1078.67C1036.82 1084.63 1027.92 1087.99 1018.64 1088Z" fill="white"/>
<path d="M1104.66 1088C1095.38 1088 1086.47 1084.65 1079.91 1078.68C1073.34 1072.71 1069.65 1064.61 1069.65 1056.17C1069.65 1047.73 1073.34 1039.63 1079.91 1033.66C1086.47 1027.69 1095.38 1024.34 1104.66 1024.34C1109.26 1024.34 1113.81 1025.16 1118.06 1026.76C1122.31 1028.36 1126.17 1030.7 1129.42 1033.66C1132.67 1036.62 1135.25 1040.12 1137.01 1043.99C1138.76 1047.85 1139.67 1051.99 1139.67 1056.17C1139.67 1060.35 1138.76 1064.49 1137.01 1068.35C1135.25 1072.21 1132.67 1075.72 1129.42 1078.68C1126.17 1081.63 1122.31 1083.98 1118.06 1085.58C1113.81 1087.18 1109.26 1088 1104.66 1088Z" fill="#009C88"/>
<path d="M1189.07 1088C1179.79 1088 1170.88 1084.65 1164.32 1078.68C1157.75 1072.71 1154.06 1064.61 1154.06 1056.17C1154.06 1047.73 1157.75 1039.63 1164.32 1033.66C1170.88 1027.69 1179.79 1024.34 1189.07 1024.34C1198.36 1024.34 1207.26 1027.69 1213.83 1033.66C1220.39 1039.63 1224.08 1047.73 1224.08 1056.17C1224.08 1064.61 1220.39 1072.71 1213.83 1078.68C1207.26 1084.65 1198.36 1088 1189.07 1088Z" fill="#773F33"/>
</g>
<defs>
<clipPath id="clip0_87_4141">
<rect width="1280" height="1088" fill="white"/>
</clipPath>
</defs>
</svg>
