<svg width="463" height="414" viewBox="0 0 463 414" fill="none" xmlns="http://www.w3.org/2000/svg">
<g clip-path="url(#clip0_31_1417)">
<path d="M341.265 105.294C341.401 105.294 341.144 105.188 341.265 105.294Z" fill="#094E93"/>
<path d="M104.854 81.271L104.702 81.0292L104.415 81.1803L104.854 81.271Z" fill="#094E93"/>
<path d="M85.1765 99.1146C85.1452 98.9451 85.074 98.7855 84.9689 98.6489C84.8638 98.5123 84.7278 98.4027 84.572 98.3289C84.3979 98.3145 84.223 98.3427 84.0623 98.4112C83.9017 98.4796 83.7602 98.5862 83.6501 98.7218C82.8491 100.127 82.1388 101.547 81.3982 102.998C81.096 103.602 81.3982 103.965 82.0481 104.116C84.4813 104.705 85.2067 104.116 85.2067 101.683V101.23C85.2402 100.525 85.2301 99.8184 85.1765 99.1146Z" fill="#094E93"/>
<path d="M88.8338 98.7218C88.7237 98.5862 88.5822 98.4796 88.4215 98.4112C88.2609 98.3427 88.0859 98.3145 87.9119 98.3289C87.7546 98.4006 87.6172 98.5096 87.5119 98.6466C87.4065 98.7836 87.3363 98.9442 87.3074 99.1146C87.262 99.7988 87.262 100.485 87.3074 101.169C87.2468 101.853 87.2468 102.541 87.3074 103.224C87.3575 103.421 87.4535 103.603 87.5874 103.755C87.7214 103.907 87.8896 104.026 88.0781 104.101C88.8604 104.206 89.6534 104.206 90.4357 104.101C91.1158 104.101 91.3879 103.572 91.0554 102.907C90.33 101.502 89.6196 100.082 88.8338 98.7218Z" fill="#094E93"/>
<path d="M445.832 78.3549C445.832 78.3549 414.382 120.297 380.846 117.94C380.438 117.85 352.751 110.96 341.25 105.279C329.728 102.049 317.529 102.13 306.051 105.513C294.573 108.896 284.281 115.444 276.355 124.407C276.355 124.407 252.628 134.016 217.339 98.5405L167.376 65.3008C168.101 66.434 196.937 111.64 180.509 152.087C180.509 150.878 180.328 103.164 166.786 91.3486C166.786 91.3486 158.338 117.744 145.205 124.8L142.47 125.782L144.434 117.955C144.434 117.955 166.424 62.2035 141.487 26.6219C136.179 33.6011 130.445 40.2465 124.319 46.5204C128.834 35.9318 129.758 24.1564 126.949 12.9937C115.04 5.43919 89.801 -6.75372 61.0864 4.68375C61.0864 4.68375 48.7694 7.11628 36.6941 21.0316C31.6313 37.8328 30.649 60.3148 30.649 60.3148C27.9478 54.0706 25.8428 47.5853 24.362 40.9452C19.3226 52.8735 16.1225 65.4971 14.8711 78.3851C14.8711 78.3851 19.1329 112.29 29.7422 125.404C29.3341 125.223 11.2893 117.321 7.78309 91.4241C7.5564 92.9048 -4.53395 159.883 34.004 198.426L65.1518 252.213L35.4851 176.457C35.4851 176.457 36.135 154.489 48.18 147.403C48.18 147.403 58.8346 140.498 60.6935 116.671L69.1567 121.204C81.9574 126.9 91.8262 128.501 105.186 119.693C106.032 119.134 107.226 125.283 107.196 126.265C107.145 128.711 106.632 131.126 105.685 133.382C105.423 134.157 104.919 134.829 104.247 135.296C103.575 135.764 102.77 136.004 101.952 135.98H72.542C72.1484 135.978 71.7569 135.922 71.3783 135.814C73.5116 138.915 76.4081 141.415 79.7884 143.071C83.1688 144.728 86.919 145.486 90.6776 145.272C90.6776 145.272 103.584 145.559 109.01 138.443C109.01 138.443 116.475 135.724 127.326 153.023C127.326 153.023 133.1 166.621 149.709 163.6C149.709 163.6 150.646 165.216 143.664 166.939C143.664 166.939 132.994 175.43 112.153 151.437V151.346L107.468 146.995C107.876 147.886 119.951 174.538 135.956 179.539C135.956 179.539 153.578 181.564 163.159 173.783C162.751 174.493 152.097 192.578 124.153 183.604C124.153 183.604 100.743 163.494 89.5441 166.984C89.5441 166.984 48.3765 173.027 84.5719 240.292L56.8095 310.912C56.8095 310.912 19.8432 335.66 16.7753 344.831C16.9264 344.831 40.0341 335.766 43.8728 333.666L30.6792 344.831C30.9361 344.831 42.4522 347.385 64.2299 333.651C63.6405 334.3 52.2907 346.901 52.0489 347.249H69.0358C69.0358 347.249 79.222 345.526 85.9926 309.945C85.9926 309.945 115.176 254.042 138.238 240.066C138.238 240.066 160.56 223.839 157.598 204.545C158.066 206.056 164.217 226.861 160.968 236.984C162.237 236.515 209.163 219.14 224.049 178.165L242.457 142.341C242.034 144.079 228.341 200.798 240.704 231.877C240.704 231.877 255.409 272.051 255.409 284.214C255.409 284.214 260.502 308.388 243.454 321.261C243.454 321.261 224.064 340.903 223.807 343.018C223.807 343.018 239.313 338.939 243.726 333.711L236.17 344C236.563 344 254.441 341.809 259.096 338.123L254.396 341.84C254.532 341.84 272.652 347.883 282.038 335.569L284.592 257.003L307.518 238.585L294.989 237.8L311.523 217.569H292.133L310.737 196.613L293.312 195.434L293.705 192.11C293.705 192.11 312.309 155.063 286.647 139.395C286.647 139.395 305.493 115.614 334.676 119.361C334.676 119.361 345.557 119.965 360.459 128.32C361.92 129.142 363.493 129.747 365.129 130.118C383.707 134.211 403.042 133.272 421.137 127.399C421.137 127.399 454.779 113.317 462.713 82.3739C463.192 80.5004 463.008 78.519 462.193 76.7653C461.378 75.0115 459.982 73.5932 458.241 72.7506C456.5 71.9079 454.522 71.6926 452.64 72.1413C450.759 72.5899 449.09 73.6748 447.917 75.2123C447.115 76.1845 446.416 77.2377 445.832 78.3549ZM61.2224 112.546C61.2224 112.35 61.3131 112.169 61.3736 111.972L61.5247 112.138C61.4017 112.256 61.2995 112.394 61.2224 112.546ZM114.586 67.9902C114.307 68.1916 114.009 68.3638 113.695 68.5039C113.906 67.2347 114.072 66.1771 114.178 65.603C111.73 67.1139 109.161 68.8363 106.455 70.3321C106.061 70.5015 105.705 70.7469 105.405 71.0544C105.106 71.3618 104.871 71.7251 104.712 72.1236C104.553 72.5222 104.475 72.948 104.481 73.3769C104.487 73.8058 104.578 74.2292 104.748 74.623C105.222 76.605 105.495 78.6298 105.564 80.6666C105.564 81.3314 105.564 81.9962 105.564 82.661C105.534 82.5974 105.499 82.5367 105.458 82.4797C105.436 82.6955 105.39 82.9082 105.322 83.1142C104.419 86.1948 102.75 88.9965 100.471 91.258C95.0301 96.531 94.9696 105.793 99.2164 111.625C99.9871 112.682 100.969 113.574 101.71 114.647C102.432 115.599 103.074 116.61 103.629 117.668C103.841 118.061 103.463 117.91 103.221 118.258C102.969 118.534 102.679 118.773 102.36 118.968C92.2644 126.22 80.2194 125.918 69.8066 119.225C69.4874 119.059 69.1925 118.851 68.9301 118.605C68.6882 118.363 68.4615 118.273 68.6731 117.925C69.5146 116.357 70.5284 114.887 71.6957 113.544C73.9978 111.113 75.5122 108.045 76.0407 104.74C76.5693 101.434 76.0873 98.0468 74.6579 95.0201C73.9889 93.7056 73.1338 92.4945 72.1189 91.4241C69.8415 89.0643 68.1309 86.2175 67.1165 83.0991C67.0437 82.8781 66.993 82.6503 66.9654 82.4192C66.9654 82.4192 66.9654 82.4192 66.9654 82.2984C66.941 82.1432 66.941 81.9851 66.9654 81.83C67.1445 79.4643 67.5033 77.1157 68.0384 74.8043C68.2424 74.3599 68.3511 73.8777 68.3575 73.3888C68.364 72.8999 68.2681 72.415 68.0759 71.9654C67.8838 71.5157 67.5997 71.1112 67.2418 70.7779C66.884 70.4446 66.4603 70.1898 65.9981 70.0299C63.3987 68.6399 60.9655 67.0081 58.6381 65.4972C58.7439 66.026 58.9555 67.0988 59.1822 68.2924C56.1445 66.4793 55.011 63.4575 56.8246 60.5113C58.5892 58.0566 60.583 55.7749 62.7791 53.6971C63.4991 53.0847 64.273 52.5386 65.0914 52.0654L61.963 51.8236C66.3004 48.8018 72.6629 49.0436 78.0129 53.4101C77.7711 52.5791 77.6351 52.0956 77.4084 51.2646C80.3101 53.5763 82.2446 56.9456 86.2041 57.0664C90.1637 57.1873 92.34 53.954 95.2115 51.3704C95.2115 52.1258 95.1359 52.564 95.0754 53.3647C100.093 49.0134 105.428 48.9831 111.02 51.7481L108.345 52.02C110.374 53.7076 112.307 55.5084 114.133 57.4139C117.669 61.4329 117.7 64.9684 114.586 67.9902Z" fill="#094E93"/>
<path d="M89.257 64.7871C89.3628 63.8201 89.4232 63.2762 89.5441 62.1732L86.5215 64.9835L83.3932 62.0826C83.5594 63.11 83.6501 63.5935 83.8163 64.7417C81.3606 62.8193 78.5101 61.4635 75.4689 60.7713C72.4277 60.0791 69.271 60.0677 66.2249 60.7379L70.0182 61.3876L67.7664 62.4754C70.2298 61.9617 71.333 62.6869 71.6806 65.3612C72.0282 68.0355 74.3707 69.773 76.9702 70.7551C77.7863 71.0573 78.6175 71.299 80.1288 71.8127L79.63 71.9638H80.1439C85.1009 69.8939 92.9294 71.9638 92.9294 71.9638H92.8085C94.5767 71.3141 95.7102 70.9364 96.8134 70.4529C97.9824 70.0923 99.0268 69.4114 99.8282 68.4873C100.63 67.5633 101.156 66.4332 101.347 65.2252C101.589 62.6265 102.753 62.2034 104.959 62.551L103.01 61.5235L106.697 60.8436C103.68 60.1585 100.548 60.157 97.5301 60.8393C94.5123 61.5217 91.6855 62.8706 89.257 64.7871ZM76.3052 67.2045C73.8418 66.0713 73.5546 64.2583 75.1717 61.4178C75.6436 62.0517 76.044 62.7357 76.3656 63.4575C76.8795 65.2101 77.8769 65.8598 79.3882 64.8626C80.8995 63.8654 81.4738 65.0439 82.4108 65.9505C81.682 66.8149 80.6833 67.4087 79.5756 67.6362C78.4679 67.8637 77.3158 67.7117 76.3052 67.2045ZM97.7202 66.7663C95.5893 68.2772 93.413 68.0657 90.7985 65.9807C91.675 64.8324 92.3098 63.8956 93.8211 64.9231C95.3324 65.9505 96.2694 65.1799 96.753 63.533C97.0771 62.7965 97.4719 62.0932 97.9318 61.4329C99.3524 63.6539 99.8663 65.3008 97.7202 66.7663Z" fill="#094E93"/>
<path d="M99.5337 312.528L106.44 322.893C106.44 322.893 90.0277 331.097 89.1663 341.885V345.013C89.1663 345.013 101.922 327.184 115.584 328.695L101.982 306.923L99.5337 312.528Z" fill="#094E93"/>
<path d="M124.319 275.375L152.777 320.717V317.484L129.442 268.153L124.319 275.375Z" fill="#094E93"/>
<path d="M201.561 236.092L194.156 242.136L207.637 269.332V309.733C207.637 309.733 174.993 332.88 172.151 344.076L176.323 345.028C176.323 345.028 196.816 321.503 209.344 319.796C209.344 319.796 212.76 321.035 213.712 306.953L214.846 271.039C214.846 271.039 207.44 238.177 201.561 236.092Z" fill="#094E93"/>
<path d="M3.02257 370.411C4.9827 366.565 8.03107 363.381 11.7881 361.255C15.8735 359.003 20.4841 357.876 25.1479 357.991C29.2233 357.921 33.2622 358.768 36.9662 360.469C40.3474 362.04 43.2672 364.454 45.4446 367.48C47.6752 370.631 49.1633 374.247 49.7971 378.056H32.9915C32.295 376.469 31.1632 375.113 29.7271 374.143C28.2876 373.198 26.5973 372.709 24.8759 372.737C23.6496 372.687 22.4294 372.935 21.3209 373.462C20.2123 373.988 19.2487 374.777 18.5133 375.759C16.9834 378.189 16.1716 381.002 16.1716 383.873C16.1716 386.744 16.9834 389.556 18.5133 391.986C19.2487 392.969 20.2123 393.757 21.3209 394.284C22.4294 394.81 23.6496 395.059 24.8759 395.008C26.5971 395.035 28.2868 394.545 29.7271 393.603C31.1671 392.637 32.3 391.279 32.9915 389.69H49.8727C49.2455 393.5 47.7569 397.117 45.5202 400.266C43.3383 403.287 40.4197 405.701 37.0418 407.276C33.3368 408.974 29.2986 409.821 25.2235 409.754C20.5286 409.864 15.8898 408.717 11.7881 406.43C8.04732 404.324 5.00139 401.174 3.02257 397.365C1.01329 393.167 -0.0296631 388.572 -0.0296631 383.918C-0.0296631 379.264 1.01329 374.669 3.02257 370.471V370.411Z" fill="#094E93"/>
<path d="M102.602 358.49V409.346H86.6576V389.523H71.5447V409.346H55.5552V358.49H71.4993V376.802H86.6123V358.49H102.602Z" fill="#094E93"/>
<path d="M125.725 358.49V409.346H109.78V358.49H125.725Z" fill="#094E93"/>
<path d="M148.862 397.274H164.232V409.362H132.903V358.49H148.847V397.274H148.862Z" fill="#094E93"/>
<path d="M201.894 401.656H184.937L182.428 409.346H165.683L184.287 358.49H202.68L221.223 409.346H204.402L201.894 401.656ZM197.979 389.659L193.446 375.502L188.912 389.659H197.979Z" fill="#094E93"/>
<path d="M259.943 361.723C263.82 363.764 267.026 366.88 269.177 370.698C271.301 374.727 272.411 379.213 272.411 383.767C272.411 388.321 271.301 392.807 269.177 396.836C267.034 400.705 263.83 403.882 259.943 405.992C255.647 408.288 250.832 409.438 245.963 409.331H224.805V358.475H245.963C250.821 358.376 255.626 359.492 259.943 361.723ZM253.081 392.183C255.118 389.858 256.24 386.872 256.24 383.782C256.24 380.692 255.118 377.707 253.081 375.382C250.719 373.33 247.653 372.274 244.527 372.435H240.719V395.099H244.527C247.664 395.281 250.748 394.235 253.127 392.183H253.081Z" fill="#094E93"/>
<path d="M310.813 401.656H293.856L291.347 409.346H274.602L293.191 358.49H311.583L330.127 409.346H313.321L310.813 401.656ZM306.929 389.659L302.395 375.502L297.861 389.659H306.929Z" fill="#094E93"/>
<path d="M352.131 382.936C348.64 382.936 345.292 381.55 342.824 379.082C340.355 376.614 338.968 373.266 338.968 369.776C338.962 368.044 339.298 366.328 339.957 364.726C340.616 363.124 341.585 361.668 342.808 360.441C344.03 359.215 345.484 358.241 347.084 357.577C348.684 356.913 350.399 356.571 352.131 356.571C355.623 356.571 358.971 357.957 361.439 360.425C363.908 362.893 365.295 366.241 365.295 369.731C365.299 371.462 364.961 373.177 364.302 374.778C363.642 376.379 362.674 377.835 361.451 379.061C360.228 380.288 358.776 381.261 357.177 381.926C355.578 382.591 353.863 382.934 352.131 382.936Z" fill="#4C2D8E"/>
<path d="M384.065 383.767C380.574 383.767 377.226 382.38 374.757 379.913C372.289 377.445 370.902 374.097 370.902 370.607C370.902 367.117 372.289 363.77 374.757 361.302C377.226 358.834 380.574 357.447 384.065 357.447C387.556 357.447 390.904 358.834 393.373 361.302C395.842 363.77 397.228 367.117 397.228 370.607C397.228 374.097 395.842 377.445 393.373 379.913C390.904 382.38 387.556 383.767 384.065 383.767Z" fill="#BEBB32"/>
<path d="M416.422 382.936C412.931 382.936 409.583 381.549 407.114 379.082C404.645 376.614 403.259 373.266 403.259 369.776C403.259 366.286 404.645 362.939 407.114 360.471C409.583 358.003 412.931 356.616 416.422 356.616C419.913 356.616 423.261 358.003 425.73 360.471C428.198 362.939 429.585 366.286 429.585 369.776C429.581 373.265 428.193 376.61 425.725 379.077C423.258 381.544 419.912 382.932 416.422 382.936Z" fill="#A64263"/>
<path d="M447.116 382.936C443.625 382.936 440.277 381.549 437.808 379.082C435.34 376.614 433.953 373.266 433.953 369.776C433.953 366.286 435.34 362.939 437.808 360.471C440.277 358.003 443.625 356.616 447.116 356.616C450.607 356.616 453.956 358.003 456.424 360.471C458.893 362.939 460.28 366.286 460.28 369.776C460.28 373.266 458.893 376.614 456.424 379.082C453.956 381.549 450.607 382.936 447.116 382.936Z" fill="#DD9827"/>
<path d="M350.983 413.985C347.492 413.985 344.144 412.598 341.675 410.13C339.206 407.662 337.819 404.315 337.819 400.825C337.819 397.335 339.206 393.987 341.675 391.52C344.144 389.052 347.492 387.665 350.983 387.665C352.719 387.655 354.44 387.989 356.047 388.646C357.654 389.304 359.114 390.273 360.345 391.498C361.576 392.723 362.552 394.179 363.217 395.782C363.882 397.385 364.224 399.104 364.222 400.84C364.22 402.573 363.875 404.289 363.208 405.889C362.541 407.489 361.564 408.941 360.334 410.163C359.104 411.384 357.645 412.35 356.04 413.006C354.435 413.662 352.717 413.995 350.983 413.985Z" fill="#66A543"/>
<path d="M383.022 413.985C379.531 413.985 376.183 412.598 373.714 410.13C371.246 407.662 369.859 404.315 369.859 400.825C369.859 397.335 371.246 393.987 373.714 391.52C376.183 389.052 379.531 387.665 383.022 387.665C386.513 387.665 389.862 389.052 392.33 391.52C394.799 393.987 396.186 397.335 396.186 400.825C396.186 404.315 394.799 407.662 392.33 410.13C389.862 412.598 386.513 413.985 383.022 413.985Z" fill="#0157A3"/>
<path d="M415.364 413.985C411.873 413.985 408.525 412.598 406.056 410.13C403.588 407.662 402.201 404.315 402.201 400.825C402.201 397.335 403.588 393.987 406.056 391.52C408.525 389.052 411.873 387.665 415.364 387.665C418.855 387.665 422.203 389.052 424.672 391.52C427.141 393.987 428.527 397.335 428.527 400.825C428.527 404.315 427.141 407.662 424.672 410.13C422.203 412.598 418.855 413.985 415.364 413.985Z" fill="#009C88"/>
<path d="M447.116 413.985C443.625 413.985 440.277 412.598 437.808 410.13C435.34 407.662 433.953 404.315 433.953 400.825C433.953 397.335 435.34 393.987 437.808 391.52C440.277 389.052 443.625 387.665 447.116 387.665C450.607 387.665 453.956 389.052 456.424 391.52C458.893 393.987 460.28 397.335 460.28 400.825C460.28 404.315 458.893 407.662 456.424 410.13C453.956 412.598 450.607 413.985 447.116 413.985Z" fill="#773F33"/>
</g>
<defs>
<clipPath id="clip0_31_1417">
<rect width="463" height="414" fill="white"/>
</clipPath>
</defs>
</svg>
